# xmcd
#
# Track frame offsets:
#	150
#	17805
#	29990
#	45272
#	59635
#	77200
#	92252
#	108839
#	128528
#	141302
#	153930
#	173100
#	188935
#	202765
#	214896
#	229978
#	245946
#	259347
#
# Disc length: 3629
#
# Revision: 1
# Processed by: cddbd v1.5.1PL0 Copyright (c) Steve Scherf et al.
# Submitted via: CDex 1.40Release
# Normalized: r0:DSETVAR1,TDELIM( - ),TSWAP
#
DISCID=fe0e2b12
DTITLE=Various Artist - International Country Music Jubilee Festival CD 1
DYEAR=2004
DGENRE=Country
TTITLE0=Shania Twain - Man I Feel Like A Woman
TTITLE1=Neal McCoy - Wink
TTITLE2=Mary Duff - Tonight We Might Just Fall In Love Again
TTITLE3=Marty Stuart - Red Red Wine And Cheatin' Songs
TTITLE4=Bellamy Brothers - Shine Them Buckles
TTITLE5=Ronda Vincent and Randy Travis - It Ain't Nothin' New
TTITLE6=Carlene Carter - I Fell in Love
TTITLE7=John Michael Montgommery - I Swear
TTITLE8=BR 5-49 - Crazy Arms
TTITLE9=Rosanne Cash - Beautiful Pain
TTITLE10=Joe El Sonnier - Tear Stained Letter
TTITLE11=Sarah Jory - Whatever Way The Wind Blows
TTITLE12=Dwight Yoakam - Guitars And Cadillacs
TTITLE13=Danni Leigh - If The Jukebox Took Teardrops
TTITLE14=Mandy Barnett - Three Days
TTITLE15=Texas Tornados - Little Bit Is Better Than Nada
TTITLE16=Mark Chesnutt - Angelina
TTITLE17=Pam Tillis - Ma Vida Loca
EXTD=YEAR: 2004 ID3G: 2
EXTT0=
EXTT1=
EXTT2=
EXTT3=
EXTT4=
EXTT5=
EXTT6=
EXTT7=
EXTT8=
EXTT9=
EXTT10=
EXTT11=
EXTT12=
EXTT13=
EXTT14=
EXTT15=
EXTT16=
EXTT17=
PLAYORDER=
